<?xml version="1.0" encoding="utf-8"?>
<!-- Generator: Adobe Illustrator 16.0.3, SVG Export Plug-In . SVG Version: 6.00 Build 0)  -->
<!DOCTYPE svg PUBLIC "-//W3C//DTD SVG 1.1//EN" "http://www.w3.org/Graphics/SVG/1.1/DTD/svg11.dtd">
<svg version="1.1" id="Capa_1" xmlns="http://www.w3.org/2000/svg" xmlns:xlink="http://www.w3.org/1999/xlink" x="0px" y="0px"
	 width="501.984px" height="494.066px" viewBox="0 0 501.984 494.066" enable-background="new 0 0 501.984 494.066"
	 xml:space="preserve">
<g>
	<path fill="#1B1464" d="M266.035,299.431c-1.08,1.737-2.678,3.146-4.556,4.039C262.983,302.108,264.508,300.747,266.035,299.431z"
		/>
	<g>
		<path fill="#251C5E" d="M395.356,164.573c-19.403,15-37.731,32.305-54.868,50.466c-69.54,73.614-119.361,165.376-141.014,268.272
			c-0.215,1.01-0.426,1.937-0.629,2.951c-1.682,4.915-6.34,8.405-11.826,8.405c-5.094,0-9.471-3.063-11.418-7.427
			c-0.346-1.762-0.709-3.53-1.077-5.286C149.948,365.08,89.415,263.009,5.107,186.4c-0.636-0.58-1.275-1.165-1.916-1.735
			C1.206,182.451,0,179.871,0,176.662c0-6.467,4.915-12.089,11.217-12.089H395.356z"/>
		<path fill="#B2C0EC" d="M490.767,164.573h-62.544c-19.404,15-37.73,32.305-54.867,50.466
			c-43.619,46.173-79.473,99.609-105.488,158.269c14.986,33.836,26.694,69.601,34.615,107.052c0,0.005,0,0.069,0.004,0.074
			c0.253,1.217,0.51,2.474,0.76,3.691c1.76,4.767,6.338,8.2,11.717,8.2c5.199,0,9.652-3.103,11.536-7.612
			c0.314-1.562,0.633-2.996,0.961-4.555c24.565-117.186,85.278-219.246,169.854-295.972c0.357-0.323,0.715-0.169,1.078-0.495
			c2.225-2.256,3.592-4.788,3.592-8.204C501.984,169.02,497.066,164.573,490.767,164.573z"/>
		<circle fill="#E5C32C" cx="249.325" cy="69.692" r="69.118"/>
	</g>
</g>
</svg>
